<mxfile host="drawio-plugin" modified="2022-12-06T17:09:37.274Z" agent="5.0 (Windows NT 6.2; Win64; x64) AppleWebKit/537.36 (KHTML, like Gecko) Chrome/98.0.4758.102 Safari/537.36" etag="q0RGJ7RickWw4JERikox" version="20.5.3" type="embed"><diagram id="C5RBs43oDa-KdzZeNtuy" name="Page-1"><mxGraphModel dx="1885" dy="874" grid="1" gridSize="10" guides="1" tooltips="1" connect="1" arrows="1" fold="1" page="1" pageScale="1" pageWidth="827" pageHeight="1169" math="0" shadow="0"><root><mxCell id="WIyWlLk6GJQsqaUBKTNV-0"/><mxCell id="WIyWlLk6GJQsqaUBKTNV-1" parent="WIyWlLk6GJQsqaUBKTNV-0"/><mxCell id="1" style="edgeStyle=orthogonalEdgeStyle;rounded=0;orthogonalLoop=1;jettySize=auto;html=1;endArrow=none;endFill=0;" edge="1" parent="WIyWlLk6GJQsqaUBKTNV-1" source="KYRfigZfdq7UTcLGH72t-0" target="KYRfigZfdq7UTcLGH72t-21"><mxGeometry relative="1" as="geometry"/></mxCell><mxCell id="KYRfigZfdq7UTcLGH72t-0" value="TableType" style="swimlane;fontStyle=1;childLayout=stackLayout;horizontal=1;startSize=26;horizontalStack=0;resizeParent=1;resizeParentMax=0;resizeLast=0;collapsible=1;marginBottom=0;" parent="WIyWlLk6GJQsqaUBKTNV-1" vertex="1"><mxGeometry x="-90" y="349" width="160" height="130" as="geometry"/></mxCell><mxCell id="KYRfigZfdq7UTcLGH72t-1" value="POOL(1200)" style="text;strokeColor=none;fillColor=none;align=left;verticalAlign=top;spacingLeft=4;spacingRight=4;overflow=hidden;rotatable=0;points=[[0,0.5],[1,0.5]];portConstraint=eastwest;" parent="KYRfigZfdq7UTcLGH72t-0" vertex="1"><mxGeometry y="26" width="160" height="26" as="geometry"/></mxCell><mxCell id="KYRfigZfdq7UTcLGH72t-2" value="SNOOKER(1600)" style="text;strokeColor=none;fillColor=none;align=left;verticalAlign=top;spacingLeft=4;spacingRight=4;overflow=hidden;rotatable=0;points=[[0,0.5],[1,0.5]];portConstraint=eastwest;" parent="KYRfigZfdq7UTcLGH72t-0" vertex="1"><mxGeometry y="52" width="160" height="26" as="geometry"/></mxCell><mxCell id="KYRfigZfdq7UTcLGH72t-3" value="REX(800)" style="text;strokeColor=none;fillColor=none;align=left;verticalAlign=top;spacingLeft=4;spacingRight=4;overflow=hidden;rotatable=0;points=[[0,0.5],[1,0.5]];portConstraint=eastwest;" parent="KYRfigZfdq7UTcLGH72t-0" vertex="1"><mxGeometry y="78" width="160" height="26" as="geometry"/></mxCell><mxCell id="KYRfigZfdq7UTcLGH72t-4" value="- price: float" style="text;strokeColor=none;fillColor=none;align=left;verticalAlign=top;spacingLeft=4;spacingRight=4;overflow=hidden;rotatable=0;points=[[0,0.5],[1,0.5]];portConstraint=eastwest;" parent="KYRfigZfdq7UTcLGH72t-0" vertex="1"><mxGeometry y="104" width="160" height="26" as="geometry"/></mxCell><mxCell id="KYRfigZfdq7UTcLGH72t-5" value="Saloon" style="swimlane;fontStyle=1;childLayout=stackLayout;horizontal=1;startSize=26;horizontalStack=0;resizeParent=1;resizeParentMax=0;resizeLast=0;collapsible=1;marginBottom=0;" parent="WIyWlLk6GJQsqaUBKTNV-1" vertex="1"><mxGeometry x="190" y="50" width="300" height="190" as="geometry"/></mxCell><mxCell id="KYRfigZfdq7UTcLGH72t-6" value="- tables: List&lt;Table&gt;" style="text;strokeColor=none;fillColor=none;align=left;verticalAlign=top;spacingLeft=4;spacingRight=4;overflow=hidden;rotatable=0;points=[[0,0.5],[1,0.5]];portConstraint=eastwest;" parent="KYRfigZfdq7UTcLGH72t-5" vertex="1"><mxGeometry y="26" width="300" height="26" as="geometry"/></mxCell><mxCell id="KYRfigZfdq7UTcLGH72t-7" value="" style="line;strokeWidth=1;fillColor=none;align=left;verticalAlign=middle;spacingTop=-1;spacingLeft=3;spacingRight=3;rotatable=0;labelPosition=right;points=[];portConstraint=eastwest;" parent="KYRfigZfdq7UTcLGH72t-5" vertex="1"><mxGeometry y="52" width="300" height="8" as="geometry"/></mxCell><mxCell id="KYRfigZfdq7UTcLGH72t-8" value="+ reserveTable(TableType tableType): int" style="text;strokeColor=none;fillColor=none;align=left;verticalAlign=top;spacingLeft=4;spacingRight=4;overflow=hidden;rotatable=0;points=[[0,0.5],[1,0.5]];portConstraint=eastwest;" parent="KYRfigZfdq7UTcLGH72t-5" vertex="1"><mxGeometry y="60" width="300" height="26" as="geometry"/></mxCell><mxCell id="KYRfigZfdq7UTcLGH72t-9" value="+ addOrder(OrderType orderType, int tableId): void" style="text;strokeColor=none;fillColor=none;align=left;verticalAlign=top;spacingLeft=4;spacingRight=4;overflow=hidden;rotatable=0;points=[[0,0.5],[1,0.5]];portConstraint=eastwest;" parent="KYRfigZfdq7UTcLGH72t-5" vertex="1"><mxGeometry y="86" width="300" height="26" as="geometry"/></mxCell><mxCell id="KYRfigZfdq7UTcLGH72t-10" value="+ checkOut(Table table, int endTime): void" style="text;strokeColor=none;fillColor=none;align=left;verticalAlign=top;spacingLeft=4;spacingRight=4;overflow=hidden;rotatable=0;points=[[0,0.5],[1,0.5]];portConstraint=eastwest;" parent="KYRfigZfdq7UTcLGH72t-5" vertex="1"><mxGeometry y="112" width="300" height="26" as="geometry"/></mxCell><mxCell id="KYRfigZfdq7UTcLGH72t-11" value="+ getFreeTables(TableType): List&lt;Table&gt;" style="text;strokeColor=none;fillColor=none;align=left;verticalAlign=top;spacingLeft=4;spacingRight=4;overflow=hidden;rotatable=0;points=[[0,0.5],[1,0.5]];portConstraint=eastwest;" parent="KYRfigZfdq7UTcLGH72t-5" vertex="1"><mxGeometry y="138" width="300" height="26" as="geometry"/></mxCell><mxCell id="KYRfigZfdq7UTcLGH72t-12" value="+ highestRevenuetable(int time): List&lt;Table&gt;" style="text;strokeColor=none;fillColor=none;align=left;verticalAlign=top;spacingLeft=4;spacingRight=4;overflow=hidden;rotatable=0;points=[[0,0.5],[1,0.5]];portConstraint=eastwest;" parent="KYRfigZfdq7UTcLGH72t-5" vertex="1"><mxGeometry y="164" width="300" height="26" as="geometry"/></mxCell><mxCell id="0" style="edgeStyle=orthogonalEdgeStyle;rounded=0;orthogonalLoop=1;jettySize=auto;html=1;endArrow=none;endFill=0;" edge="1" parent="WIyWlLk6GJQsqaUBKTNV-1" source="KYRfigZfdq7UTcLGH72t-13" target="KYRfigZfdq7UTcLGH72t-21"><mxGeometry relative="1" as="geometry"/></mxCell><mxCell id="KYRfigZfdq7UTcLGH72t-13" value="OrderType" style="swimlane;fontStyle=1;childLayout=stackLayout;horizontal=1;startSize=26;horizontalStack=0;resizeParent=1;resizeParentMax=0;resizeLast=0;collapsible=1;marginBottom=0;" parent="WIyWlLk6GJQsqaUBKTNV-1" vertex="1"><mxGeometry x="630" y="310" width="160" height="208" as="geometry"/></mxCell><mxCell id="KYRfigZfdq7UTcLGH72t-14" value="BEER(8)" style="text;strokeColor=none;fillColor=none;align=left;verticalAlign=top;spacingLeft=4;spacingRight=4;overflow=hidden;rotatable=0;points=[[0,0.5],[1,0.5]];portConstraint=eastwest;" parent="KYRfigZfdq7UTcLGH72t-13" vertex="1"><mxGeometry y="26" width="160" height="26" as="geometry"/></mxCell><mxCell id="KYRfigZfdq7UTcLGH72t-15" value="LEMONADE(7)" style="text;strokeColor=none;fillColor=none;align=left;verticalAlign=top;spacingLeft=4;spacingRight=4;overflow=hidden;rotatable=0;points=[[0,0.5],[1,0.5]];portConstraint=eastwest;" parent="KYRfigZfdq7UTcLGH72t-13" vertex="1"><mxGeometry y="52" width="160" height="26" as="geometry"/></mxCell><mxCell id="KYRfigZfdq7UTcLGH72t-16" value="COKE(8)" style="text;strokeColor=none;fillColor=none;align=left;verticalAlign=top;spacingLeft=4;spacingRight=4;overflow=hidden;rotatable=0;points=[[0,0.5],[1,0.5]];portConstraint=eastwest;" parent="KYRfigZfdq7UTcLGH72t-13" vertex="1"><mxGeometry y="78" width="160" height="26" as="geometry"/></mxCell><mxCell id="KYRfigZfdq7UTcLGH72t-17" value="BURGER(12)" style="text;strokeColor=none;fillColor=none;align=left;verticalAlign=top;spacingLeft=4;spacingRight=4;overflow=hidden;rotatable=0;points=[[0,0.5],[1,0.5]];portConstraint=eastwest;" parent="KYRfigZfdq7UTcLGH72t-13" vertex="1"><mxGeometry y="104" width="160" height="26" as="geometry"/></mxCell><mxCell id="KYRfigZfdq7UTcLGH72t-18" value="FRIES(10)" style="text;strokeColor=none;fillColor=none;align=left;verticalAlign=top;spacingLeft=4;spacingRight=4;overflow=hidden;rotatable=0;points=[[0,0.5],[1,0.5]];portConstraint=eastwest;" parent="KYRfigZfdq7UTcLGH72t-13" vertex="1"><mxGeometry y="130" width="160" height="26" as="geometry"/></mxCell><mxCell id="KYRfigZfdq7UTcLGH72t-19" value="FISH(11)" style="text;strokeColor=none;fillColor=none;align=left;verticalAlign=top;spacingLeft=4;spacingRight=4;overflow=hidden;rotatable=0;points=[[0,0.5],[1,0.5]];portConstraint=eastwest;" parent="KYRfigZfdq7UTcLGH72t-13" vertex="1"><mxGeometry y="156" width="160" height="26" as="geometry"/></mxCell><mxCell id="KYRfigZfdq7UTcLGH72t-20" value="- price: float" style="text;strokeColor=none;fillColor=none;align=left;verticalAlign=top;spacingLeft=4;spacingRight=4;overflow=hidden;rotatable=0;points=[[0,0.5],[1,0.5]];portConstraint=eastwest;" parent="KYRfigZfdq7UTcLGH72t-13" vertex="1"><mxGeometry y="182" width="160" height="26" as="geometry"/></mxCell><mxCell id="KYRfigZfdq7UTcLGH72t-21" value="Table" style="swimlane;fontStyle=1;childLayout=stackLayout;horizontal=1;startSize=26;horizontalStack=0;resizeParent=1;resizeParentMax=0;resizeLast=0;collapsible=1;marginBottom=0;" parent="WIyWlLk6GJQsqaUBKTNV-1" vertex="1"><mxGeometry x="205" y="319" width="270" height="190" as="geometry"/></mxCell><mxCell id="KYRfigZfdq7UTcLGH72t-22" value="- id: int" style="text;strokeColor=none;fillColor=none;align=left;verticalAlign=top;spacingLeft=4;spacingRight=4;overflow=hidden;rotatable=0;points=[[0,0.5],[1,0.5]];portConstraint=eastwest;" parent="KYRfigZfdq7UTcLGH72t-21" vertex="1"><mxGeometry y="26" width="270" height="26" as="geometry"/></mxCell><mxCell id="KYRfigZfdq7UTcLGH72t-23" value="- orders: List&lt;OrderType&gt;" style="text;strokeColor=none;fillColor=none;align=left;verticalAlign=top;spacingLeft=4;spacingRight=4;overflow=hidden;rotatable=0;points=[[0,0.5],[1,0.5]];portConstraint=eastwest;" parent="KYRfigZfdq7UTcLGH72t-21" vertex="1"><mxGeometry y="52" width="270" height="26" as="geometry"/></mxCell><mxCell id="KYRfigZfdq7UTcLGH72t-24" value="- startTime: int" style="text;strokeColor=none;fillColor=none;align=left;verticalAlign=top;spacingLeft=4;spacingRight=4;overflow=hidden;rotatable=0;points=[[0,0.5],[1,0.5]];portConstraint=eastwest;" parent="KYRfigZfdq7UTcLGH72t-21" vertex="1"><mxGeometry y="78" width="270" height="26" as="geometry"/></mxCell><mxCell id="KYRfigZfdq7UTcLGH72t-25" value="- FREE = true" style="text;strokeColor=none;fillColor=none;align=left;verticalAlign=top;spacingLeft=4;spacingRight=4;overflow=hidden;rotatable=0;points=[[0,0.5],[1,0.5]];portConstraint=eastwest;" parent="KYRfigZfdq7UTcLGH72t-21" vertex="1"><mxGeometry y="104" width="270" height="26" as="geometry"/></mxCell><mxCell id="KYRfigZfdq7UTcLGH72t-26" value="" style="line;strokeWidth=1;fillColor=none;align=left;verticalAlign=middle;spacingTop=-1;spacingLeft=3;spacingRight=3;rotatable=0;labelPosition=right;points=[];portConstraint=eastwest;" parent="KYRfigZfdq7UTcLGH72t-21" vertex="1"><mxGeometry y="130" width="270" height="8" as="geometry"/></mxCell><mxCell id="KYRfigZfdq7UTcLGH72t-27" value="+ addOrder(OrderType orderType): orderType" style="text;strokeColor=none;fillColor=none;align=left;verticalAlign=top;spacingLeft=4;spacingRight=4;overflow=hidden;rotatable=0;points=[[0,0.5],[1,0.5]];portConstraint=eastwest;" parent="KYRfigZfdq7UTcLGH72t-21" vertex="1"><mxGeometry y="138" width="270" height="26" as="geometry"/></mxCell><mxCell id="KYRfigZfdq7UTcLGH72t-28" value="+ clearOrder(): void" style="text;strokeColor=none;fillColor=none;align=left;verticalAlign=top;spacingLeft=4;spacingRight=4;overflow=hidden;rotatable=0;points=[[0,0.5],[1,0.5]];portConstraint=eastwest;" parent="KYRfigZfdq7UTcLGH72t-21" vertex="1"><mxGeometry y="164" width="270" height="26" as="geometry"/></mxCell><mxCell id="KYRfigZfdq7UTcLGH72t-29" value="" style="endArrow=diamondThin;endFill=0;endSize=24;html=1;rounded=0;" parent="WIyWlLk6GJQsqaUBKTNV-1" source="KYRfigZfdq7UTcLGH72t-5" target="KYRfigZfdq7UTcLGH72t-21" edge="1"><mxGeometry width="160" relative="1" as="geometry"><mxPoint x="270" y="270" as="sourcePoint"/><mxPoint x="430" y="270" as="targetPoint"/></mxGeometry></mxCell></root></mxGraphModel></diagram></mxfile>